<?xml version="1.0" standalone="no"?>
<!DOCTYPE svg PUBLIC "-//W3C//DTD SVG 20010904//EN"
 "http://www.w3.org/TR/2001/REC-SVG-20010904/DTD/svg10.dtd">
<svg version="1.0" xmlns="http://www.w3.org/2000/svg"
 width="420.000000pt" height="419.000000pt" viewBox="0 0 420.000000 419.000000"
 preserveAspectRatio="xMidYMid meet">

<g transform="translate(0.000000,419.000000) scale(0.100000,-0.100000)"
fill="#000000" stroke="none">
<path d="M1835 4079 c-140 -8 -315 -33 -346 -50 -18 -9 -19 -36 -19 -957 0
-544 5 -1008 10 -1089 23 -312 122 -539 334 -761 257 -269 557 -396 936 -395
298 1 498 60 735 218 286 192 499 526 525 825 5 58 11 486 15 952 l6 848 -58
26 c-317 143 -738 284 -878 296 l-40 3 -5 -1055 c-5 -985 -6 -1058 -23 -1093
-48 -102 -169 -181 -278 -180 -96 1 -206 65 -256 150 l-28 48 -7 270 c-3 149
-7 649 -7 1113 l-1 842 -242 -2 c-134 0 -301 -4 -373 -9z"/>
<path d="M1075 3949 c-228 -61 -536 -171 -718 -256 l-99 -47 5 -895 c4 -957 4
-951 58 -1159 55 -215 152 -420 287 -612 83 -117 304 -341 432 -437 256 -192
553 -343 865 -438 163 -50 219 -53 380 -21 552 112 1003 330 1309 633 111 110
177 197 255 338 66 118 87 174 78 200 -11 27 -42 1 -118 -100 -182 -244 -485
-435 -777 -491 -105 -20 -519 -19 -636 1 -104 18 -281 74 -385 122 -315 143
-553 417 -670 770 -76 227 -71 155 -81 1293 -5 564 -12 1049 -15 1078 -6 49
-8 52 -33 51 -15 0 -76 -14 -137 -30z"/>
</g>
</svg>
